<?xml version="1.0" standalone="no"?>
<!DOCTYPE svg PUBLIC "-//W3C//DTD SVG 20010904//EN"
 "http://www.w3.org/TR/2001/REC-SVG-20010904/DTD/svg10.dtd">
<svg version="1.0" xmlns="http://www.w3.org/2000/svg"
 width="125.000000pt" height="125.000000pt" viewBox="0 0 125.000000 125.000000"
 preserveAspectRatio="xMidYMid meet">
<metadata>
Created by potrace 1.11, written by Peter Selinger 2001-2013
</metadata>
<g transform="translate(0.000000,125.000000) scale(0.100000,-0.100000)"
fill="#000000" stroke="none">
<path d="M548 1228 c-236 -23 -435 -183 -514 -413 -38 -109 -40 -264 -5 -373
66 -205 239 -367 439 -413 263 -61 531 53 670 283 167 278 81 646 -193 823
-114 73 -258 107 -397 93z m232 -67 c127 -40 229 -118 302 -230 142 -218 122
-492 -51 -683 -136 -150 -334 -217 -531 -179 -30 6 -92 29 -138 52 -249 122
-371 415 -283 677 33 99 77 167 154 239 69 63 190 126 272 141 76 14 202 6
275 -17z"/>
<path d="M475 1141 c-238 -68 -398 -277 -397 -519 0 -82 6 -116 32 -185 58
-154 177 -269 332 -321 162 -55 333 -31 473 65 53 37 151 136 143 144 -2 2
-23 6 -48 10 -79 12 -120 44 -280 222 -64 71 -65 73 -37 73 48 0 97 27 111 62
17 40 11 105 -13 138 -16 22 -25 25 -87 25 l-69 0 -2 -215 c-1 -168 1 -220 12
-236 13 -20 12 -22 -13 -25 -15 -2 -40 -3 -56 -1 -28 4 -28 4 -7 18 19 14 21
24 20 119 l-1 103 -114 0 -114 0 0 -103 c0 -81 3 -107 16 -119 14 -15 13 -16
-13 -17 -15 0 -38 -2 -50 -3 -26 -3 -29 4 -11 22 9 9 12 74 13 229 1 192 -1
219 -16 234 -16 16 -14 18 41 21 57 3 58 2 39 -15 -16 -15 -19 -32 -19 -122
l0 -105 115 0 115 0 0 98 c0 72 -4 103 -16 120 -15 22 -14 22 23 23 167 3 218
-8 248 -55 45 -68 17 -168 -55 -204 l-39 -19 51 -59 c109 -123 175 -177 244
-198 29 -9 59 43 85 144 69 266 -76 540 -337 637 -90 33 -231 40 -319 14z"/>
</g>
</svg>
